<svg class="diagram-root" style="background: #f5f6f6" xmlns="http://www.w3.org/2000/svg" xmlns:xlink="http://www.w3.org/1999/xlink"><style>.diagram-root { font-family: "Helvetica Neue", sans-serif; font-size: 12px; } .t { overflow: visible; } .t-bg { y: 40; fill: #fff;   } .th { fill: #005aa0;   } .tht { fill: #fff; font-size: 14px;  } .tf { fill: #323c46; overflow: visible; } .tf.pk { fill: #005aa0; font-weight: bold; } .tf.fk { font-weight: bold; } .ty { fill: #adb1b5; font-weight: normal; text-anchor: end; } .r { fill: transparent; stroke: #c3c3c3; stroke-width: 1; } .l { stroke: 1; } .i { fill: #c2c7ce; stroke: #c2c7ce; } .i.ix { fill: #afb3b6; stroke: #000; } .fa { fill: transparent; overflow: visible; } .fa .bg.hover { fill: #f7f7f7; } .c { cy: 12; r: 4; stroke: #d2d2dc; fill: #d2d2dc; } .hr { fill: transparent; stroke: #323c46; stroke-opacity: 0.035; stroke-width: 13; } .dc { stroke: #fa5a3c; fill: #fa5a3c; } .x { stroke: white; stroke-width: 1; } .hl .th { fill: #1b9bff; } .hl .tht {  } .fhl .bg { fill: #e7f4ff; } .fhls .bg {  } .r.hl { stroke: #1b9bff; } .dim { opacity: 0.25; }</style><g class="drawing-wrapper" transform="translate(-89, -138.9090909090909) scale(1,1)"><g class="rs"><path d="M 263.72 317 m -1, 0 a 1,1 0 1,0 2,0 a 1,1 0 1,0 -2,0 M 263.72 317 m -0.5, 0 a 0.5,0.5 0 1,0 1,0 a 0.5,0.5 0 1,0 -1,0  M263.72 317 L263.72 317 275.72 317 M 263.72 323 m -1, 0 a 1,1 0 1,0 2,0 a 1,1 0 1,0 -2,0 M 263.72 323 m -0.5, 0 a 0.5,0.5 0 1,0 1,0 a 0.5,0.5 0 1,0 -1,0  M263.72 323 L263.72 323 270.72 317 263.72 311 M 263.72 311 m -1, 0 a 1,1 0 1,0 2,0 a 1,1 0 1,0 -2,0 M 263.72 311 m -0.5, 0 a 0.5,0.5 0 1,0 1,0 a 0.5,0.5 0 1,0 -1,0  M275.72 317 Q 321.04 317, 366.36 401 T 457 485 M 469 485 m -1, 0 a 1,1 0 1,0 2,0 a 1,1 0 1,0 -2,0 M 469 485 m -0.5, 0 a 0.5,0.5 0 1,0 1,0 a 0.5,0.5 0 1,0 -1,0  M469 485 L469 485 457 485 M463 491 L463 491 463 479" id="h897178954" class="r"></path><path d="M 256.71 647 m -1, 0 a 1,1 0 1,0 2,0 a 1,1 0 1,0 -2,0 M 256.71 647 m -0.5, 0 a 0.5,0.5 0 1,0 1,0 a 0.5,0.5 0 1,0 -1,0  M256.71 647 L256.71 647 268.71 647 M 256.71 653 m -1, 0 a 1,1 0 1,0 2,0 a 1,1 0 1,0 -2,0 M 256.71 653 m -0.5, 0 a 0.5,0.5 0 1,0 1,0 a 0.5,0.5 0 1,0 -1,0  M256.71 653 L256.71 653 263.71 647 256.71 641 M 256.71 641 m -1, 0 a 1,1 0 1,0 2,0 a 1,1 0 1,0 -2,0 M 256.71 641 m -0.5, 0 a 0.5,0.5 0 1,0 1,0 a 0.5,0.5 0 1,0 -1,0  M268.71 647 Q 315.78 647, 362.86 566 T 457 485 M 469 485 m -1, 0 a 1,1 0 1,0 2,0 a 1,1 0 1,0 -2,0 M 469 485 m -0.5, 0 a 0.5,0.5 0 1,0 1,0 a 0.5,0.5 0 1,0 -1,0  M469 485 L469 485 457 485 M463 491 L463 491 463 479" id="h1341095365" class="r"></path><path d="M 625.16 225.91 m -1, 0 a 1,1 0 1,0 2,0 a 1,1 0 1,0 -2,0 M 625.16 225.91 m -0.5, 0 a 0.5,0.5 0 1,0 1,0 a 0.5,0.5 0 1,0 -1,0  M625.16 225.91 L625.16 225.91 637.16 225.91 M 625.16 231.91 m -1, 0 a 1,1 0 1,0 2,0 a 1,1 0 1,0 -2,0 M 625.16 231.91 m -0.5, 0 a 0.5,0.5 0 1,0 1,0 a 0.5,0.5 0 1,0 -1,0  M625.16 231.91 L625.16 231.91 632.16 225.91 625.16 219.91 M 625.16 219.91 m -1, 0 a 1,1 0 1,0 2,0 a 1,1 0 1,0 -2,0 M 625.16 219.91 m -0.5, 0 a 0.5,0.5 0 1,0 1,0 a 0.5,0.5 0 1,0 -1,0  M637.16 225.91 C 700.84 225.91, 695.71 485, 645.71 485 M 633.71 485 m -1, 0 a 1,1 0 1,0 2,0 a 1,1 0 1,0 -2,0 M 633.71 485 m -0.5, 0 a 0.5,0.5 0 1,0 1,0 a 0.5,0.5 0 1,0 -1,0  M633.71 485 L633.71 485 645.71 485 M639.71 491 L639.71 491 639.71 479" id="h548634929" class="r"></path><path d="M 771 279 m -1, 0 a 1,1 0 1,0 2,0 a 1,1 0 1,0 -2,0 M 771 279 m -0.5, 0 a 0.5,0.5 0 1,0 1,0 a 0.5,0.5 0 1,0 -1,0  M771 279 L771 279 759 279 M 771 285 m -1, 0 a 1,1 0 1,0 2,0 a 1,1 0 1,0 -2,0 M 771 285 m -0.5, 0 a 0.5,0.5 0 1,0 1,0 a 0.5,0.5 0 1,0 -1,0  M771 285 L771 285 764 279 771 273 M 771 273 m -1, 0 a 1,1 0 1,0 2,0 a 1,1 0 1,0 -2,0 M 771 273 m -0.5, 0 a 0.5,0.5 0 1,0 1,0 a 0.5,0.5 0 1,0 -1,0  M759 279 Q 730.68 279, 702.36 382 T 645.71 485 M 633.71 485 m -1, 0 a 1,1 0 1,0 2,0 a 1,1 0 1,0 -2,0 M 633.71 485 m -0.5, 0 a 0.5,0.5 0 1,0 1,0 a 0.5,0.5 0 1,0 -1,0  M633.71 485 L633.71 485 645.71 485 M639.71 491 L639.71 491 639.71 479" id="h2086878864" class="r"></path><path d="M 757.5 566 m -1, 0 a 1,1 0 1,0 2,0 a 1,1 0 1,0 -2,0 M 757.5 566 m -0.5, 0 a 0.5,0.5 0 1,0 1,0 a 0.5,0.5 0 1,0 -1,0  M757.5 566 L757.5 566 745.5 566 M 757.5 572 m -1, 0 a 1,1 0 1,0 2,0 a 1,1 0 1,0 -2,0 M 757.5 572 m -0.5, 0 a 0.5,0.5 0 1,0 1,0 a 0.5,0.5 0 1,0 -1,0  M757.5 572 L757.5 572 750.5 566 757.5 560 M 757.5 560 m -1, 0 a 1,1 0 1,0 2,0 a 1,1 0 1,0 -2,0 M 757.5 560 m -0.5, 0 a 0.5,0.5 0 1,0 1,0 a 0.5,0.5 0 1,0 -1,0  M745.5 566 Q 720.56 566, 695.61 525.5 T 645.71 485 M 633.71 485 m -1, 0 a 1,1 0 1,0 2,0 a 1,1 0 1,0 -2,0 M 633.71 485 m -0.5, 0 a 0.5,0.5 0 1,0 1,0 a 0.5,0.5 0 1,0 -1,0  M633.71 485 L633.71 485 645.71 485 M639.71 491 L639.71 491 639.71 479" id="h790411062" class="r"></path><path d="M 657.08 722 m -1, 0 a 1,1 0 1,0 2,0 a 1,1 0 1,0 -2,0 M 657.08 722 m -0.5, 0 a 0.5,0.5 0 1,0 1,0 a 0.5,0.5 0 1,0 -1,0  M657.08 722 L657.08 722 669.08 722 M 657.08 728 m -1, 0 a 1,1 0 1,0 2,0 a 1,1 0 1,0 -2,0 M 657.08 728 m -0.5, 0 a 0.5,0.5 0 1,0 1,0 a 0.5,0.5 0 1,0 -1,0  M657.08 728 L657.08 728 664.08 722 657.08 716 M 657.08 716 m -1, 0 a 1,1 0 1,0 2,0 a 1,1 0 1,0 -2,0 M 657.08 716 m -0.5, 0 a 0.5,0.5 0 1,0 1,0 a 0.5,0.5 0 1,0 -1,0  M669.08 722 C 719.08 722, 733.1020000000001 485, 645.71 485 M 633.71 485 m -1, 0 a 1,1 0 1,0 2,0 a 1,1 0 1,0 -2,0 M 633.71 485 m -0.5, 0 a 0.5,0.5 0 1,0 1,0 a 0.5,0.5 0 1,0 -1,0  M633.71 485 L633.71 485 645.71 485 M639.71 491 L639.71 491 639.71 479" id="h2516970527" class="r"></path></g><g class="hrs"></g><g class="ts"><svg width="164.71" height="175" x="469" y="428" id="h3774468298" class="t"><rect height="40" width="164.71" class="th"></rect><text x="13" y="25" class="tht">companies</text><rect height="135" width="164.71" class="t-bg"></rect><text x="13" y="61" class="tf pk">companyId<tspan x="151.71" class="ty">varchar</tspan></text><path d="M7,14A2,2 0 0,1 5,12A2,2 0 0,1 7,10A2,2 0 0,1 9,12A2,2 0 0,1 7,14M12.65,10C11.83,7.67 9.61,6 7, 6A6, 6 0 0, 0 1, 12A6, 6 0 0, 0 7, 18C9.61, 18 11.83, 16.33 12.65, 14H17V18H21V14H23V10H12.65Z" class="i pk" transform="translate(91.69632812500001, 48) scale(0.65)"></path><text x="13" y="86" class="tf">firstSeenDate<tspan x="151.71" class="ty">date</tspan></text><text x="13" y="111" class="tf">lastSeenDate<tspan x="151.71" class="ty">date</tspan></text><text x="13" y="136" class="tf">foundedDate<tspan x="151.71" class="ty">date</tspan></text><text x="13" y="161" class="tf">dissolutionDate<tspan x="151.71" class="ty">date</tspan></text></svg><svg width="152.72" height="275" x="111" y="260" id="h1349582078" class="t"><rect height="40" width="152.72" class="th"></rect><text x="13" y="25" class="tht">addresses</text><rect height="235" width="152.72" class="t-bg"></rect><text x="13" y="61" class="tf fk">companyId<tspan x="139.72" class="ty">varchar</tspan></text><text x="13" y="86" class="tf">globalId<tspan x="139.72" class="ty">varchar</tspan></text><text x="13" y="111" class="tf">validFrom<tspan x="139.72" class="ty">date</tspan></text><text x="13" y="136" class="tf">fullAddress<tspan x="139.72" class="ty">varchar</tspan></text><text x="13" y="161" class="tf">address<tspan x="139.72" class="ty">varchar</tspan></text><text x="13" y="186" class="tf">zipCode<tspan x="139.72" class="ty">varchar</tspan></text><text x="13" y="211" class="tf">zipAndPlace<tspan x="139.72" class="ty">varchar</tspan></text><text x="13" y="236" class="tf">validTill<tspan x="139.72" class="ty">date</tspan></text><text x="13" y="261" class="tf">isCurrent<tspan x="139.72" class="ty">boolean</tspan></text></svg><svg width="144.71" height="200" x="112" y="590" id="h2523108887" class="t"><rect height="40" width="144.71" class="th"></rect><text x="13" y="25" class="tht">capital</text><rect height="160" width="144.71" class="t-bg"></rect><text x="13" y="61" class="tf fk">companyId<tspan x="131.71" class="ty">varchar</tspan></text><text x="13" y="86" class="tf">globalId<tspan x="131.71" class="ty">varchar</tspan></text><text x="13" y="111" class="tf">validFrom<tspan x="131.71" class="ty">date</tspan></text><text x="13" y="136" class="tf">objective<tspan x="131.71" class="ty">varchar</tspan></text><text x="13" y="161" class="tf">validTill<tspan x="131.71" class="ty">date</tspan></text><text x="13" y="186" class="tf">isCurrent<tspan x="131.71" class="ty">boolean</tspan></text></svg><svg width="144.71" height="200" x="480.45" y="168.91" id="h3346630926" class="t"><rect height="40" width="144.71" class="th"></rect><text x="13" y="25" class="tht">names</text><rect height="160" width="144.71" class="t-bg"></rect><text x="13" y="61" class="tf fk">companyId<tspan x="131.71" class="ty">varchar</tspan></text><text x="13" y="86" class="tf">globalId<tspan x="131.71" class="ty">varchar</tspan></text><text x="13" y="111" class="tf">validFrom<tspan x="131.71" class="ty">date</tspan></text><text x="13" y="136" class="tf">name<tspan x="131.71" class="ty">varchar</tspan></text><text x="13" y="161" class="tf">validTill<tspan x="131.71" class="ty">date</tspan></text><text x="13" y="186" class="tf">isCurrent<tspan x="131.71" class="ty">boolean</tspan></text></svg><svg width="216.08" height="225" x="441" y="665" id="h190670823" class="t"><rect height="40" width="216.08" class="th"></rect><text x="13" y="25" class="tht">referenceNumbers</text><rect height="185" width="216.08" class="t-bg"></rect><text x="13" y="61" class="tf fk">companyId<tspan x="203.08" class="ty">varchar</tspan></text><text x="13" y="86" class="tf">stdRefNo<tspan x="203.08" class="ty">varchar</tspan></text><text x="13" y="111" class="tf">nativeReferenceNumber<tspan x="203.08" class="ty">varchar</tspan></text><text x="13" y="136" class="tf">courtName<tspan x="203.08" class="ty">varchar</tspan></text><text x="13" y="161" class="tf">courtCode<tspan x="203.08" class="ty">varchar</tspan></text><text x="13" y="186" class="tf">referenceNumberFirstSeen<tspan x="203.08" class="ty">date</tspan></text><text x="13" y="211" class="tf">validTill<tspan x="203.08" class="ty">date</tspan></text></svg><svg width="164.08" height="325" x="757.5" y="509" id="h2247643919" class="t"><rect height="40" width="164.08" class="th"></rect><text x="13" y="25" class="tht">positions</text><rect height="285" width="164.08" class="t-bg"></rect><text x="13" y="61" class="tf fk">companyId<tspan x="151.08" class="ty">varchar</tspan></text><text x="13" y="86" class="tf">globalId<tspan x="151.08" class="ty">varchar</tspan></text><text x="13" y="111" class="tf">dateOfPublication<tspan x="151.08" class="ty">date</tspan></text><text x="13" y="136" class="tf">foundPosition<tspan x="151.08" class="ty">varchar</tspan></text><text x="13" y="161" class="tf">startDate<tspan x="151.08" class="ty">date</tspan></text><text x="13" y="186" class="tf">endDate<tspan x="151.08" class="ty">date</tspan></text><text x="13" y="211" class="tf">firstName<tspan x="151.08" class="ty">varchar</tspan></text><text x="13" y="236" class="tf">lastName<tspan x="151.08" class="ty">varchar</tspan></text><text x="13" y="261" class="tf">maidenName<tspan x="151.08" class="ty">varchar</tspan></text><text x="13" y="286" class="tf">birthDate<tspan x="151.08" class="ty">varchar</tspan></text><text x="13" y="311" class="tf">city<tspan x="151.08" class="ty">varchar</tspan></text></svg><svg width="144.71" height="200" x="771" y="222" id="h2407856754" class="t"><rect height="40" width="144.71" class="th"></rect><text x="13" y="25" class="tht">objectives</text><rect height="160" width="144.71" class="t-bg"></rect><text x="13" y="61" class="tf fk">companyId<tspan x="131.71" class="ty">varchar</tspan></text><text x="13" y="86" class="tf">globalId<tspan x="131.71" class="ty">varchar</tspan></text><text x="13" y="111" class="tf">validFrom<tspan x="131.71" class="ty">date</tspan></text><text x="13" y="136" class="tf">objective<tspan x="131.71" class="ty">varchar</tspan></text><text x="13" y="161" class="tf">validTill<tspan x="131.71" class="ty">date</tspan></text><text x="13" y="186" class="tf">isCurrent<tspan x="131.71" class="ty">boolean</tspan></text></svg></g></g><text class="qdbd-link" x="10" y="20">www.quickdatabasediagrams.com</text></svg>